<svg width="74" height="66" viewBox="0 0 74 66" fill="none" xmlns="http://www.w3.org/2000/svg">
<path d="M12.7422 18.0374V47.3938L36.3094 61.1614H39.655L62.13 46.5344V18.0374L39.5566 4.22266H36.6853L12.7422 18.0374Z" fill="#321551"/>
<path d="M64.3134 18.5486L44.5209 7.12939C52.5209 15.6633 52.3595 29.0651 44.0289 37.4023C42.7024 38.7299 41.2461 39.851 39.7031 40.7636C47.404 45.2105 57.2403 44.5575 64.3134 38.8145V18.5486Z" fill="#0B567D"/>
<path d="M64.3136 47.0455V38.8224C55.7586 45.7651 43.1632 45.2616 35.1926 37.306C33.8544 35.9685 32.7247 34.5013 31.8076 32.9436C27.1946 40.7852 27.9149 50.8926 33.9607 58.0281L39.6188 61.293L64.3136 47.0455Z" fill="#7F4677"/>
<path d="M39.6915 25.114C31.9729 20.5589 22.052 21.1726 14.9238 26.9432V47.0458L33.9606 58.0303C26.7104 49.4767 27.1178 36.6532 35.1867 28.5795C36.5643 27.1988 38.0817 26.0463 39.6915 25.114Z" fill="#D69A00"/>
<path d="M14.9238 18.5487V26.9371C23.4789 20.014 36.0585 20.5214 44.0212 28.4712C45.389 29.8381 46.5363 31.3408 47.4652 32.9358C52.1905 24.7992 51.2045 14.2631 44.5132 7.12754L39.6167 4.30322L14.9238 18.5487Z" fill="#BA453F"/>
<path d="M51.2223 28.8115C50.7972 28.1782 42.6121 23.9831 41.9548 23.6684C41.6635 23.5287 41.5277 23.277 41.4982 22.9387C41.3703 21.4715 40.6756 19.6718 39.6857 18.6078C37.9833 16.9065 35.7142 17.0953 34.2618 18.6078C33.2718 19.6738 32.5771 21.4715 32.4492 22.9387C32.4197 23.277 32.2839 23.5287 31.9926 23.6684C31.3353 23.9831 23.1522 28.1782 22.7252 28.8115C21.5916 29.1892 24.6164 33.347 26.1279 33.347C26.8836 33.347 28.2081 32.5917 29.5306 32.2141C29.1075 32.8848 24.7562 43.0669 24.581 43.6589C24.2799 44.6738 24.8998 45.0573 25.878 45.0592C28.4659 45.0671 30.8669 45.0612 33.4549 45.0632C34.0965 45.0632 34.5708 44.7819 34.8719 44.1683C35.2419 43.413 36.1078 39.8531 36.7415 38.8284C36.7828 38.7616 36.8852 38.7517 36.9698 38.736C37.0544 38.7517 37.1567 38.7616 37.1981 38.8284C37.8318 39.8531 38.6957 43.415 39.0677 44.1683C39.3688 44.7819 39.8431 45.0651 40.4847 45.0632C43.0727 45.0592 45.4737 45.0671 48.0616 45.0592C49.0397 45.0553 49.6597 44.6738 49.3585 43.6589C49.1834 43.0669 44.834 32.8867 44.4089 32.2141C45.7334 32.5917 47.056 33.347 47.8117 33.347C49.331 33.347 52.3578 29.1892 51.2223 28.8115Z" fill="#321551"/>
<path d="M53.8629 28.8115C53.4378 28.1782 45.2528 23.9831 44.5954 23.6684C44.3042 23.5287 44.1684 23.277 44.1389 22.9387C44.0109 21.4715 43.3162 19.6718 42.3263 18.6078C40.6239 16.9065 38.3548 17.0953 36.9024 18.6078C35.9125 19.6738 35.2178 21.4715 35.0898 22.9387C35.0603 23.277 34.9245 23.5287 34.6333 23.6684C33.9759 23.9831 25.7929 28.1782 25.3658 28.8115C24.2322 29.1892 27.2571 33.347 28.7685 33.347C29.5242 33.347 30.8487 32.5917 32.1712 32.2141C31.7481 32.8848 27.3968 43.0669 27.2216 43.6589C26.9205 44.6738 27.5405 45.0573 28.5186 45.0593C31.1065 45.0671 33.5075 45.0612 36.0955 45.0632C36.7371 45.0632 37.2114 44.7819 37.5125 44.1683C37.8825 43.413 38.7484 39.8531 39.3821 38.8284C39.4234 38.7616 39.5258 38.7517 39.6104 38.736C39.695 38.7517 39.7974 38.7616 39.8387 38.8284C40.4724 39.8531 41.3364 43.415 41.7083 44.1683C42.0094 44.7819 42.4837 45.0652 43.1253 45.0632C45.7133 45.0592 48.1143 45.0671 50.7022 45.0593C51.6804 45.0553 52.3003 44.6738 51.9992 43.6589C51.824 43.0669 47.4747 32.8867 47.0496 32.2141C48.3741 32.5917 49.6966 33.347 50.4523 33.347C51.9736 33.347 54.9985 29.1892 53.8629 28.8115Z" fill="white"/>
</svg>
